<svg width="40" height="40" viewBox="0 0 40 40" fill="none" xmlns="http://www.w3.org/2000/svg">
<path fill-rule="evenodd" clip-rule="evenodd" d="M20 40C31.0457 40 40 31.0457 40 20C40 8.9543 31.0457 0 20 0C8.9543 0 0 8.9543 0 20C0 31.0457 8.9543 40 20 40ZM15.5408 15.5395C16.6932 14.3871 18.2562 13.7397 19.8859 13.7397C21.5157 13.7397 23.0787 14.3871 24.2311 15.5395C25.3835 16.6919 26.0309 18.2549 26.0309 19.8847C26.0309 21.5144 25.3835 23.0774 24.2311 24.2298C23.0787 25.3822 21.5157 26.0296 19.8859 26.0296C18.2562 26.0296 16.6932 25.3822 15.5408 24.2298C14.3884 23.0774 13.741 21.5144 13.741 19.8847C13.741 18.2549 14.3884 16.6919 15.5408 15.5395ZM17.0631 22.7062C17.8118 23.4549 18.8272 23.8755 19.8859 23.8755C20.9447 23.8755 21.9601 23.4549 22.7088 22.7062C23.4575 21.9575 23.878 20.9421 23.878 19.8834C23.878 18.8246 23.4575 17.8092 22.7088 17.0605C21.9601 16.3118 20.9447 15.8913 19.8859 15.8913C18.8272 15.8913 17.8118 16.3118 17.0631 17.0605C16.3144 17.8092 15.8938 18.8246 15.8938 19.8834C15.8938 20.9421 16.3144 21.9575 17.0631 22.7062ZM26.2741 14.9465C27.0653 14.9465 27.7067 14.3051 27.7067 13.5139C27.7067 12.7227 27.0653 12.0813 26.2741 12.0813C25.4829 12.0813 24.8415 12.7227 24.8415 13.5139C24.8415 14.3051 25.4829 14.9465 26.2741 14.9465ZM29.8466 9.93893C30.4492 10.5412 30.9193 11.2627 31.227 12.0572C31.5817 12.9997 31.771 13.9964 31.7864 15.0034C31.8609 16.2752 31.8609 16.6872 31.8609 19.9337C31.8609 23.1803 31.8436 23.5856 31.7864 24.864C31.7665 25.8581 31.5791 26.8388 31.2296 27.7691C30.9215 28.5635 30.4513 29.2849 29.8488 29.8874C29.2463 30.4898 28.5249 30.9601 27.7305 31.2682C26.8006 31.6165 25.8184 31.8048 24.8255 31.825C23.5564 31.8981 23.1404 31.8981 19.8952 31.8981C16.6499 31.8981 16.2446 31.8808 14.9649 31.825C13.97 31.7923 12.988 31.59 12.0612 31.2269C11.2665 30.9194 10.5448 30.4495 9.94209 29.8472C9.33937 29.245 8.86891 28.5236 8.56076 27.7292C8.21125 26.7976 8.02387 25.8169 8.00394 24.8228C7.92952 23.5511 7.92952 23.1378 7.92952 19.8925C7.92952 16.646 7.94679 16.2406 8.00394 14.9622C8.02336 13.9693 8.21165 12.9869 8.56076 12.0572C8.86804 11.2625 9.33805 10.5408 9.94063 9.93849C10.5432 9.33615 11.265 8.86641 12.0598 8.55943C12.9884 8.20939 13.97 8.02062 14.9622 8.00128C16.2313 7.92952 16.6473 7.92952 19.8925 7.92952C23.1378 7.92952 23.5431 7.94546 24.8228 8.00128C25.8158 8.02167 26.7981 8.21039 27.7279 8.55943C28.5225 8.86677 29.2441 9.33663 29.8466 9.93893ZM29.195 26.9677C29.46 26.2491 29.5997 25.4904 29.6083 24.7245V24.7258H29.6229C29.6801 23.4554 29.6801 23.1072 29.6801 19.8703V19.8699C29.6801 16.6313 29.6655 16.2765 29.6083 15.0127C29.5959 14.2554 29.4562 13.5056 29.195 12.7947C28.9953 12.2779 28.6898 11.8085 28.298 11.4167C27.9062 11.0249 27.4368 10.7193 26.9199 10.5196C26.2094 10.2552 25.4586 10.1154 24.7006 10.1063C23.4155 10.0332 23.0833 10.0332 19.8447 10.0332C16.6061 10.0332 16.2513 10.0492 14.9875 10.1063C14.23 10.1169 13.4799 10.2567 12.7695 10.5196C11.7209 10.9209 10.8904 11.7462 10.485 12.7947C10.2201 13.5129 10.0803 14.2712 10.0717 15.0366C10.0013 16.3244 10.0013 16.6553 10.0013 19.8939C10.0013 23.1311 10.0146 23.4873 10.0717 24.7498C10.0841 25.507 10.2238 26.2568 10.485 26.9677C10.6855 27.4855 10.9924 27.9554 11.3859 28.3471C11.7794 28.7388 12.2508 29.0435 12.7695 29.2415C13.4796 29.5057 14.2299 29.6456 14.9875 29.6548C16.2739 29.7279 16.6048 29.7279 19.8447 29.7279C23.082 29.7279 23.4381 29.7133 24.7006 29.6548C25.4586 29.6451 26.2092 29.5053 26.9199 29.2415C27.4368 29.0423 27.9063 28.737 28.2981 28.3454C28.6899 27.9538 28.9955 27.4845 29.195 26.9677Z" fill="#F3F3F3"/>
</svg>
