<svg width="40" height="41" viewBox="0 0 40 41" fill="none" xmlns="http://www.w3.org/2000/svg">
<path d="M20 0.578125C8.95417 0.578125 0 9.53229 0 20.5781C0 31.624 8.95417 40.5781 20 40.5781C31.0458 40.5781 40 31.624 40 20.5781C40 9.53229 31.0458 0.578125 20 0.578125ZM15.1042 28.8677H11.0542V15.8344H15.1042V28.8677ZM13.0542 14.2344C11.775 14.2344 10.9479 13.3281 10.9479 12.2073C10.9479 11.0635 11.8 10.1844 13.1062 10.1844C14.4125 10.1844 15.2125 11.0635 15.2375 12.2073C15.2375 13.3281 14.4125 14.2344 13.0542 14.2344ZM29.8958 28.8677H25.8458V21.6448C25.8458 19.9635 25.2583 18.8219 23.7938 18.8219C22.675 18.8219 22.0104 19.5948 21.7167 20.3385C21.6083 20.6031 21.5812 20.9781 21.5812 21.351V28.8656H17.5292V19.9906C17.5292 18.3635 17.4771 17.0031 17.4229 15.8323H20.9417L21.1271 17.6427H21.2083C21.7417 16.7927 23.0479 15.5385 25.2333 15.5385C27.8979 15.5385 29.8958 17.324 29.8958 21.1615V28.8677Z" fill="#F3F3F3"/>
</svg>
