<svg width="275" height="32" viewBox="0 0 275 32" fill="none" xmlns="http://www.w3.org/2000/svg">
<path d="M11.9202 31.6401C19.3602 31.6401 23.6002 28.4401 23.6002 22.8401C23.6002 18.0401 20.6002 15.6001 13.4002 14.4001C6.16023 13.2401 4.28023 12.0801 4.28023 8.88011C4.28023 5.20011 6.76024 3.36011 11.7202 3.36011C16.6002 3.36011 19.0802 5.36011 19.0802 9.40011H22.6402C22.6402 3.64011 18.6402 0.360107 11.6802 0.360107C4.72023 0.360107 0.720235 3.56011 0.720235 9.12011C0.720235 13.9201 3.72023 16.3201 10.8402 17.4001C18.0802 18.5201 20.0002 19.6801 20.0002 22.9601C20.0002 26.7601 17.2402 28.6401 11.8002 28.6401C6.48024 28.6401 3.80023 26.3201 3.80023 21.6401H0.240234C0.240234 28.0001 4.48024 31.6401 11.9202 31.6401Z" fill="#F3F3F3"/>
<path d="M26.7802 4.04011H37.3002V31.0001H40.8202V1.00011H26.7802V4.04011Z" fill="#F3F3F3"/>
<path d="M59.799 31.6401C67.519 31.6401 71.839 27.1601 71.839 19.1601V1.00011H68.439V19.4001C68.439 25.5601 65.599 28.6001 59.799 28.6001C54.039 28.6001 51.199 25.5601 51.199 19.4001V1.00011H47.719V19.1601C47.719 27.1601 52.039 31.6401 59.799 31.6401Z" fill="#F3F3F3"/>
<path d="M87.0277 31.0001C95.7877 31.0001 100.748 25.6401 100.748 16.1201C100.748 6.52011 95.7477 1.00011 87.1077 1.00011H78.0277V4.04011H86.9477C93.6677 4.04011 97.1477 7.96011 97.1477 16.1201C97.1477 23.9201 93.7077 27.9601 86.8677 27.9601H78.0277V31.0001H87.0277Z" fill="#F3F3F3"/>
<path d="M110.557 31.0001V1.00011H106.997V31.0001H110.557Z" fill="#F3F3F3"/>
<path d="M130.606 31.6401C138.966 31.6401 144.526 25.4001 144.526 15.8801C144.526 6.48011 139.086 0.360107 130.646 0.360107C122.246 0.360107 116.726 6.68011 116.726 15.8801C116.726 25.5201 122.086 31.6401 130.606 31.6401ZM130.606 28.6001C124.166 28.6001 120.366 23.9201 120.366 15.8801C120.366 8.08011 124.086 3.40011 130.646 3.40011C137.046 3.40011 140.886 8.12011 140.886 15.8801C140.886 24.0001 137.206 28.6001 130.606 28.6001Z" fill="#F3F3F3"/>
<path d="M164.072 1.00011H160.552V31.0001H180.072V27.8801H164.072V1.00011Z" fill="#F3F3F3"/>
<path d="M188.37 31.0001V1.00011H184.81V31.0001H188.37Z" fill="#F3F3F3"/>
<path d="M205.787 31.6401C213.227 31.6401 217.467 28.4401 217.467 22.8401C217.467 18.0401 214.467 15.6001 207.267 14.4001C200.027 13.2401 198.147 12.0801 198.147 8.88011C198.147 5.20011 200.627 3.36011 205.587 3.36011C210.467 3.36011 212.947 5.36011 212.947 9.40011H216.507C216.507 3.64011 212.507 0.360107 205.547 0.360107C198.587 0.360107 194.587 3.56011 194.587 9.12011C194.587 13.9201 197.587 16.3201 204.707 17.4001C211.947 18.5201 213.867 19.6801 213.867 22.9601C213.867 26.7601 211.107 28.6401 205.667 28.6401C200.347 28.6401 197.667 26.3201 197.667 21.6401H194.107C194.107 28.0001 198.347 31.6401 205.787 31.6401Z" fill="#F3F3F3"/>
<path d="M244.491 1.60011V1.00011H240.451L226.571 15.0001V1.00011H223.091V31.0001H226.571V16.5601L241.331 31.0001H245.491V30.4001L230.171 15.7201L244.491 1.60011Z" fill="#F3F3F3"/>
<path d="M253.934 1.00011H249.654V31.0001H253.134V5.72011H253.214L271.054 31.0001H274.934V30.4001L253.934 1.00011Z" fill="#F3F3F3"/>
</svg>
