<svg width="553" height="422" viewBox="0 0 553 422" fill="none" xmlns="http://www.w3.org/2000/svg">
<path fill-rule="evenodd" clip-rule="evenodd" d="M333.87 126.382C332.826 126.02 332.274 124.881 332.636 123.837L364.072 33.2523C364.434 32.2087 365.573 31.6564 366.617 32.0185C367.66 32.3806 368.213 33.5201 367.851 34.5637L336.415 125.149C336.053 126.192 334.913 126.745 333.87 126.382Z" fill="#ABABAB"/>
<path d="M429.361 317.89C401.567 397.98 314.11 440.375 234.02 412.581C153.93 384.787 111.535 297.33 139.329 217.24C167.123 137.15 254.58 94.7551 334.67 122.549C414.76 150.343 457.155 237.8 429.361 317.89Z" fill="#E39600"/>
<mask id="mask0" mask-type="alpha" maskUnits="userSpaceOnUse" x="50" y="52" width="392" height="392">
<path d="M391.097 298.018C363.303 378.108 275.846 420.503 195.756 392.709C115.666 364.915 73.2711 277.458 101.065 197.368C128.859 117.278 216.316 74.8833 296.406 102.677C376.496 130.471 418.891 217.928 391.097 298.018Z" fill="#1B4AA5"/>
</mask>
<g mask="url(#mask0)">
<path d="M429.361 317.89C401.567 397.98 314.11 440.375 234.02 412.581C153.93 384.787 111.535 297.33 139.329 217.24C167.123 137.15 254.58 94.7551 334.67 122.549C414.76 150.343 457.155 237.8 429.361 317.89Z" fill="#FFC85F"/>
<path d="M400.07 243.686C396.449 254.121 385.054 259.645 374.619 256.023C364.184 252.402 358.66 241.007 362.281 230.572C365.903 220.137 377.298 214.613 387.733 218.234C398.168 221.856 403.692 233.251 400.07 243.686Z" fill="#E39600"/>
<path d="M267.562 372.355C263.941 382.79 252.546 388.314 242.111 384.692C231.676 381.071 226.152 369.676 229.773 359.241C233.395 348.805 244.79 343.282 255.225 346.903C265.66 350.524 271.184 361.92 267.562 372.355Z" fill="#E39600"/>
<path d="M200.896 289.943C195.464 305.596 178.371 313.881 162.719 308.449C147.066 303.017 138.78 285.925 144.212 270.272C149.644 254.619 166.737 246.333 182.39 251.765C198.042 257.197 206.328 274.29 200.896 289.943Z" fill="#E39600"/>
<path d="M354.663 374.531C348.597 392.01 329.511 401.262 312.032 395.197C294.553 389.131 285.301 370.044 291.366 352.565C297.432 335.086 316.519 325.834 333.998 331.9C351.477 337.965 360.729 357.052 354.663 374.531Z" fill="#E39600"/>
<path d="M318.802 243.005C310.473 267.005 284.264 279.71 260.263 271.381C236.262 263.052 223.558 236.843 231.887 212.842C240.216 188.841 266.425 176.137 290.426 184.466C314.427 192.795 327.131 219.004 318.802 243.005Z" fill="#E39600"/>
<path d="M285.395 156.257C280.506 170.345 265.123 177.802 251.036 172.913C236.948 168.024 229.491 152.641 234.38 138.553C239.269 124.466 254.652 117.009 268.74 121.898C282.827 126.786 290.284 142.17 285.395 156.257Z" fill="#E39600"/>
</g>
<path d="M395.194 47.6777C388.466 37.8444 378.784 33.7767 365.805 36.5792C364.836 36.7883 364.063 37.5024 363.74 38.4344L351.738 73.0176C350.97 75.2299 353.004 77.4457 355.342 77.1761C366.407 75.9002 374.837 80.0808 380.883 88.9166C387.682 98.8537 407.093 103.245 420.789 96.2642L432.739 61.9614C433.613 59.4521 430.821 56.9088 428.223 57.5174C415.563 60.4836 400.914 56.0383 395.194 47.6777Z" fill="#211664"/>
<path d="M394.179 58.6531C395.501 57.2365 397.863 58.339 397.626 60.2619L397.117 64.3935C397.012 65.2534 397.471 66.0838 398.257 66.4502L402.029 68.2106C403.784 69.03 403.466 71.6173 401.564 71.9864L397.477 72.7794C396.627 72.9444 395.979 73.6384 395.873 74.4984L395.365 78.63C395.128 80.5529 392.569 81.0495 391.63 79.3547L389.613 75.7132C389.193 74.9552 388.333 74.5538 387.483 74.7189L383.396 75.5119C381.494 75.881 380.231 73.6006 381.553 72.1841L384.393 69.1405C384.984 68.507 385.1 67.5649 384.68 66.807L382.663 63.1655C381.724 61.4707 383.503 59.5647 385.259 60.3841L389.031 62.1445C389.816 62.511 390.748 62.3301 391.339 61.6966L394.179 58.6531Z" fill="#ABABAB"/>
<mask id="mask1" mask-type="alpha" maskUnits="userSpaceOnUse" x="316" y="-5" width="100" height="79">
<ellipse cx="366.415" cy="34.4063" rx="49.4152" ry="39.2891" fill="#C4C4C4"/>
</mask>
<g mask="url(#mask1)">
<path d="M395.194 47.6777C388.466 37.8444 378.784 33.7767 365.805 36.5792C364.836 36.7883 364.063 37.5024 363.74 38.4344L351.738 73.0176C350.97 75.2299 353.004 77.4457 355.342 77.1761C366.407 75.9002 374.837 80.0808 380.883 88.9166C387.682 98.8537 407.093 103.245 420.789 96.2642L432.739 61.9614C433.613 59.4521 430.821 56.9088 428.223 57.5174C415.563 60.4836 400.914 56.0383 395.194 47.6777Z" fill="#8875FD"/>
<path d="M394.179 58.6531C395.501 57.2365 397.863 58.339 397.626 60.2619L397.117 64.3935C397.012 65.2534 397.471 66.0838 398.257 66.4502L402.029 68.2106C403.784 69.03 403.466 71.6173 401.564 71.9864L397.477 72.7794C396.627 72.9444 395.979 73.6384 395.873 74.4984L395.365 78.63C395.128 80.5529 392.569 81.0495 391.63 79.3547L389.613 75.7132C389.193 74.9552 388.333 74.5538 387.483 74.7189L383.396 75.5119C381.494 75.881 380.231 73.6006 381.553 72.1841L384.393 69.1405C384.984 68.507 385.1 67.5649 384.68 66.807L382.663 63.1655C381.724 61.4707 383.503 59.5647 385.259 60.3841L389.031 62.1445C389.816 62.511 390.748 62.3301 391.339 61.6966L394.179 58.6531Z" fill="#F3F3F3"/>
</g>
<path d="M247.243 105.789C243.018 101.85 246.134 85.12 242.559 71.9392C239.132 59.3016 229.385 50.1337 208.815 49.1778C207.948 49.1183 207.456 50.2051 208.096 50.7938C223.361 66.5973 215.854 80.8675 215.387 90.974C214.623 107.497 234.9 124.954 242.846 123.221C250.792 121.489 262.082 120.357 269.253 120.031C277.227 119.669 289.661 121.159 289.661 121.159C293.375 120.951 293.965 119.559 293.908 118.458C293.471 110.035 282.32 113.682 291.373 108.754C294.319 107.15 302.983 103.508 304.038 105.453C305.171 107.541 306.365 109.509 307.477 110.899C310.155 114.245 314.38 118.5 316.568 120.651C317.469 121.537 318.702 121.99 319.964 121.919L327.231 121.51C329.789 121.367 333.551 120.476 332.063 117.332C330.576 114.188 324.039 115.829 321.988 114.585C319.937 113.341 306.04 90.7211 310.624 79.082C310.983 78.1686 311.726 75.4157 312.092 74.0288C312.173 73.7212 312.584 73.6609 312.752 73.9314C312.906 74.1806 313.268 74.1484 313.354 73.8681C313.753 72.5634 313.97 70.7877 314.082 69.5342C314.115 69.1742 314.636 69.0879 314.774 69.4219C314.86 69.6291 315.109 69.6791 315.214 69.4807C315.76 68.4463 316.038 65.8561 316.162 64.2714C316.191 63.8912 316.708 63.7707 316.899 64.1011C317.065 64.3898 317.451 64.3319 317.474 63.9995C317.619 61.91 316.997 57.9826 316.674 56.1409C316.624 55.8556 316.984 55.6789 317.179 55.8928C317.37 56.1025 317.7 55.9393 317.634 55.6634C317.142 53.6225 316.135 51.6724 315.453 50.504C315.272 50.1937 315.62 49.7998 315.945 49.9532C316.216 50.0812 316.506 49.834 316.406 49.5511C315.597 47.2685 314.007 45.0605 313.091 43.9011C312.901 43.6612 313.145 43.2963 313.437 43.3876C313.684 43.4647 313.907 43.2148 313.804 42.9778C312.503 39.9908 311.759 38.0436 311.651 37.7588C311.642 37.7337 311.633 37.7098 311.624 37.6843C309.961 32.6334 321.027 24.5617 318.676 17.9842C317.935 15.912 315.238 16.0401 313.503 17.3943C311.255 19.1498 308.568 20.8886 305.734 21.343C302.199 21.9096 300.835 19.4225 297.225 20.6311C295.466 21.2201 293.503 21.3247 291.936 20.3299C288.937 18.425 285.259 16.3511 284.452 16.8562C283.124 17.6874 283.922 20.7439 286.507 30.6483C286.523 30.7085 286.521 30.773 286.505 30.8329C284.254 38.8149 289.662 44.6384 287.07 52.6311C284.503 60.5432 269.297 62.6789 262.24 70.2495C257.979 74.8198 250.087 81.8495 251.255 100.249C251.524 104.483 249.696 108.076 247.243 105.789Z" fill="#211664"/>
<mask id="mask2" mask-type="alpha" maskUnits="userSpaceOnUse" x="193" y="29" width="54" height="55">
<path d="M237.499 68.6176C236.499 69.1175 235.999 77.9967 234.499 78.8964C232.999 79.7961 229.702 70.8969 228.499 71.114C227.04 71.3773 226.533 81.1378 224.999 81.1176C224.008 81.1045 222.007 75.7477 220.999 75.6176C219.725 75.453 217.28 83.4678 215.999 83.1176C211.2 81.8055 207.595 74.9753 203.462 71.114C192.162 60.5572 189.878 44.6382 198.362 35.5579C206.845 26.4776 222.882 27.6746 234.182 38.2314C244.081 47.4792 250.115 65.8418 244.999 75.1176C244.275 76.4305 238.499 68.1176 237.499 68.6176Z" fill="#C4C4C4"/>
</mask>
<g mask="url(#mask2)">
<path d="M247.248 105.787C243.023 101.847 246.139 85.1176 242.564 71.9368C239.137 59.2992 229.39 50.1312 208.82 49.1753C207.952 49.1159 207.461 50.2026 208.101 50.7914C223.366 66.5949 215.859 80.8651 215.392 90.9715C214.628 107.494 234.904 124.951 242.851 123.219C250.797 121.486 262.087 120.354 269.258 120.029C277.231 119.666 289.666 121.157 289.666 121.157C293.38 120.948 293.97 119.556 293.913 118.455C293.476 110.032 282.325 113.679 291.378 108.751C294.324 107.147 302.988 103.506 304.043 105.451C305.175 107.538 306.37 109.506 307.482 110.896C310.16 114.243 314.385 118.498 316.573 120.649C317.474 121.534 318.707 121.987 319.968 121.916L327.236 121.508C329.794 121.364 333.556 120.473 332.068 117.329C330.581 114.185 324.044 115.827 321.993 114.583C319.942 113.339 306.045 90.7187 310.628 79.0795C310.988 78.1662 311.731 75.4132 312.097 74.0264C312.178 73.7187 312.589 73.6584 312.757 73.929C312.911 74.1782 313.273 74.146 313.359 73.8657C313.758 72.5609 313.975 70.7852 314.087 69.5318C314.119 69.1717 314.64 69.0855 314.779 69.4194C314.865 69.6267 315.114 69.6766 315.219 69.4782C315.765 68.4438 316.043 65.8536 316.166 64.269C316.196 63.8887 316.713 63.7683 316.904 64.0987C317.07 64.3873 317.456 64.3294 317.479 63.9971C317.624 61.9075 317.001 57.9802 316.679 56.1384C316.629 55.8532 316.989 55.6764 317.184 55.8904C317.375 56.1 317.705 55.9369 317.639 55.661C317.147 53.6201 316.14 51.6699 315.458 50.5016C315.277 50.1913 315.625 49.7974 315.949 49.9507C316.221 50.0788 316.511 49.8315 316.411 49.5487C315.602 47.2661 314.012 45.0581 313.095 43.8986C312.906 43.6587 313.15 43.2938 313.442 43.3851C313.689 43.4623 313.912 43.2124 313.809 42.9754C312.508 39.9884 311.764 38.0411 311.656 37.7564C311.646 37.7313 311.638 37.7074 311.629 37.6819C309.966 32.631 321.032 24.5592 318.681 17.9817C317.94 15.9096 315.243 16.0376 313.508 17.3919C311.26 19.1473 308.573 20.8862 305.738 21.3405C302.204 21.9072 300.84 19.4201 297.23 20.6286C295.471 21.2177 293.507 21.3222 291.941 20.3275C288.942 18.4226 285.264 16.3487 284.457 16.8537C283.129 17.685 283.927 20.7415 286.512 30.6458C286.528 30.706 286.526 30.7706 286.509 30.8305C284.259 38.8124 289.667 44.6359 287.074 52.6286C284.508 60.5407 269.302 62.6765 262.244 70.247C257.984 74.8174 250.091 81.847 251.26 100.247C251.529 104.481 249.701 108.073 247.248 105.787Z" fill="#7E67FF"/>
</g>
<path d="M315.855 51.1688C303.217 59.5995 286.138 56.1895 277.708 43.5523C269.277 30.9151 272.687 13.8362 285.324 5.40549C297.962 -3.0252 315.04 0.384852 323.471 13.022C331.902 25.6592 328.492 42.7381 315.855 51.1688Z" fill="#211664"/>
<mask id="mask3" mask-type="alpha" maskUnits="userSpaceOnUse" x="258" y="-8" width="66" height="66">
<path d="M308.938 52.0317C294.046 61.9662 273.921 57.9479 263.987 43.0566C254.052 28.1654 258.071 8.04023 272.962 -1.8942C287.853 -11.8286 307.978 -7.81035 317.913 7.08089C327.847 21.9721 323.829 42.0973 308.938 52.0317Z" fill="#8CE3FF"/>
</mask>
<g mask="url(#mask3)">
<path d="M315.853 51.1727C303.215 59.6034 286.137 56.1934 277.706 43.5562C269.275 30.919 272.685 13.8401 285.322 5.4094C297.96 -3.02129 315.038 0.388758 323.469 13.026C331.9 25.6632 328.49 42.742 315.853 51.1727Z" fill="#8875FD"/>
<path d="M247.247 105.787C243.022 101.847 246.137 85.1175 242.563 71.9366C239.135 59.2991 229.389 50.1311 208.819 49.1752C207.951 49.1158 207.459 50.2025 208.1 50.7913C223.365 66.5948 215.858 80.865 215.39 90.9714C214.627 107.494 234.903 124.951 242.849 123.219C250.796 121.486 262.086 120.354 269.256 120.028C277.23 119.666 289.664 121.157 289.664 121.157C293.378 120.948 293.968 119.556 293.911 118.455C293.475 110.032 282.323 113.679 291.377 108.751C294.323 107.147 302.986 103.506 304.041 105.45C305.174 107.538 306.368 109.506 307.481 110.896C310.158 114.243 314.383 118.498 316.572 120.649C317.472 121.534 318.706 121.987 319.967 121.916L327.234 121.508C329.793 121.364 333.554 120.473 332.067 117.329C330.58 114.185 324.043 115.826 321.992 114.583C319.941 113.339 306.043 90.7185 310.627 79.0794C310.987 78.1661 311.729 75.4131 312.096 74.0262C312.177 73.7186 312.588 73.6583 312.755 73.9288C312.909 74.178 313.272 74.1459 313.358 73.8656C313.756 72.5608 313.974 70.7851 314.086 69.5317C314.118 69.1716 314.639 69.0854 314.777 69.4193C314.863 69.6266 315.112 69.6765 315.217 69.4781C315.764 68.4437 316.042 65.8535 316.165 64.2689C316.195 63.8886 316.712 63.7682 316.902 64.0986C317.069 64.3872 317.454 64.3293 317.478 63.9969C317.623 61.9074 317 57.9801 316.678 56.1383C316.628 55.853 316.987 55.6763 317.183 55.8903C317.374 56.0999 317.704 55.9368 317.637 55.6608C317.146 53.6199 316.138 51.6698 315.457 50.5015C315.276 50.1911 315.623 49.7973 315.948 49.9506C316.219 50.0786 316.509 49.8314 316.409 49.5486C315.601 47.266 314.011 45.058 313.094 43.8985C312.904 43.6586 313.149 43.2937 313.441 43.385C313.688 43.4621 313.91 43.2123 313.807 42.9753C312.506 39.9883 311.762 38.041 311.654 37.7563C311.645 37.7312 311.636 37.7072 311.628 37.6817C309.965 32.6308 321.031 24.5591 318.679 17.9816C317.938 15.9095 315.241 16.0375 313.507 17.3917C311.258 19.1472 308.572 20.886 305.737 21.3404C302.202 21.9071 300.839 19.4199 297.229 20.6285C295.469 21.2176 293.506 21.3221 291.94 20.3273C288.941 18.4225 285.263 16.3485 284.456 16.8536C283.128 17.6848 283.925 20.7413 286.51 30.6457C286.526 30.7059 286.525 30.7705 286.508 30.8304C284.257 38.8123 289.666 44.6358 287.073 52.6285C284.506 60.5406 269.3 62.6764 262.243 70.2469C257.982 74.8172 250.09 81.8469 251.258 100.246C251.527 104.481 249.699 108.073 247.247 105.787Z" fill="#211664"/>
<path d="M296.965 30.4181C292.162 33.6222 285.672 32.3262 282.467 27.5235C279.263 22.7208 280.559 16.23 285.362 13.0259C290.165 9.82189 296.656 11.1179 299.86 15.9206C303.064 20.7233 301.768 27.2141 296.965 30.4181Z" fill="white" fill-opacity="0.67"/>
</g>
<path fill-rule="evenodd" clip-rule="evenodd" d="M433.093 249.176C432.87 247.694 432.626 246.217 432.36 244.745C515.401 294.996 564.19 350.025 550.089 385.742C530.113 436.342 391.487 429.026 240.458 369.402C89.4302 309.777 -16.8084 220.423 3.16779 169.824C17.5021 133.515 92.9298 127.027 190.194 148.289C189.391 148.879 188.594 149.478 187.802 150.084C124.236 139.946 76.9024 146.935 66.9415 172.166C51.1725 212.108 135.036 282.643 254.256 329.71C373.475 376.777 482.905 382.552 498.674 342.609C508.151 318.603 481.64 283.547 433.093 249.176Z" fill="#E39600"/>
<mask id="mask4" mask-type="alpha" maskUnits="userSpaceOnUse" x="-8" y="62" width="422" height="345">
<path d="M404.918 303.007C377.124 383.097 289.667 425.492 209.577 397.698C129.487 369.904 87.092 282.447 114.886 202.357C142.68 122.267 230.137 79.872 310.227 107.666C390.317 135.46 432.712 222.917 404.918 303.007Z" fill="#1B4AA5"/>
<path d="M404.918 294.007C377.124 374.097 263.542 407.425 151.226 368.448C38.9091 329.47 -29.61 232.947 -1.8162 152.857C25.9776 72.7669 139.56 39.4385 251.876 78.4159C364.193 117.393 432.712 213.917 404.918 294.007Z" fill="#1B4AA5"/>
</mask>
<g mask="url(#mask4)">
<path fill-rule="evenodd" clip-rule="evenodd" d="M433.093 249.176C432.87 247.694 432.626 246.217 432.36 244.745C515.401 294.996 564.19 350.025 550.089 385.742C530.113 436.342 391.487 429.026 240.458 369.402C89.4302 309.777 -16.8084 220.423 3.16779 169.824C17.5021 133.515 92.9298 127.027 190.194 148.289C189.391 148.879 188.594 149.478 187.802 150.084C124.236 139.946 76.9024 146.935 66.9415 172.166C51.1725 212.108 135.036 282.643 254.256 329.71C373.475 376.777 482.905 382.552 498.674 342.609C508.151 318.603 481.64 283.547 433.093 249.176Z" fill="#FFC85F"/>
</g>
</svg>
